<!DOCTYPE svg PUBLIC "-//W3C//DTD SVG 1.1//EN" "http://www.w3.org/Graphics/SVG/1.1/DTD/svg11.dtd">
<!-- Uploaded to: SVG Repo, www.svgrepo.com, Transformed by: SVG Repo Mixer Tools -->
<svg width="800px" height="800px" viewBox="0 0 32 32" xmlns="http://www.w3.org/2000/svg" fill="#ffffff">
<g id="SVGRepo_bgCarrier" stroke-width="0"/>
<g id="SVGRepo_tracerCarrier" stroke-linecap="round" stroke-linejoin="round"/>
<g id="SVGRepo_iconCarrier"> <defs> <style>.cls-1{fill:none;stroke:#ffffff;stroke-linecap:round;stroke-linejoin:round;stroke-width:2px;}</style> </defs> <title/> <g id="login"> <line class="cls-1" x1="29" x2="16" y1="16" y2="16"/> <path d="M24,25v3H8V4H24V7h2V3a1,1,0,0,0-1-1H7A1,1,0,0,0,6,3V29a1,1,0,0,0,1,1H25a1,1,0,0,0,1-1V25Z"/> <line class="cls-1" x1="16" x2="20" y1="16" y2="12"/> <line class="cls-1" x1="16" x2="20" y1="16" y2="20"/> <line class="cls-1" x1="25" x2="25" y1="8" y2="6"/> <line class="cls-1" x1="25" x2="25" y1="26" y2="24"/> </g> </g>
</svg>