<svg width="560" height="560" viewBox="0 0 560 560" fill="none" xmlns="http://www.w3.org/2000/svg">
<path d="M288 85.8668C271.067 89.6001 253.067 98.2668 231.333 113.067L218 122L217.6 133.733L217.2 145.333H225.467H233.6L245.333 134.267C263.733 116.933 278.267 109.733 297.733 108.4C327.467 106.267 344.8 121.6 352.667 157.467C355.067 168.133 357.067 216.133 355.467 224.4L354.533 229.067L344.933 223.2C328.8 213.333 318.4 210.4 296.667 209.733C280.8 209.2 276.267 209.467 266.133 211.867C206 226.267 161.333 293.6 161.333 370C161.333 410.667 175.733 438.933 203.2 452.533C216 458.933 227.867 461.333 246.4 461.333C297.867 461.333 335.2 434.667 361.867 378.533C383.467 333.067 398.667 260.667 398.667 202.933C398.667 132.267 376.667 93.8668 331.467 85.2001C322.533 83.6001 296.933 83.8668 288 85.8668ZM319.467 233.2C332.4 238.933 338.667 248.533 341.6 267.333C346.4 298.667 325.733 374.133 302.933 407.467C286.8 431.333 265.333 443.067 241.733 440.933C220.667 438.933 210.8 425.867 207.733 395.733C204.8 365.6 211.333 326.4 224.8 293.333C238.133 260.4 260.4 237.333 284.667 231.067C294.267 228.667 311.333 229.733 319.467 233.2Z" fill="#FFFBFB"/>
</svg>
